<?xml version="1.0" standalone="no"?>
<!DOCTYPE svg PUBLIC "-//W3C//DTD SVG 20010904//EN"
 "http://www.w3.org/TR/2001/REC-SVG-20010904/DTD/svg10.dtd">
<svg version="1.0" xmlns="http://www.w3.org/2000/svg"
 width="2048.000000pt" height="2048.000000pt" viewBox="0 0 2048.000000 2048.000000"
 preserveAspectRatio="xMidYMid meet">

<g transform="translate(0.000000,2048.000000) scale(0.100000,-0.100000)"
fill="#000000" stroke="none">
<path d="M3970 18755 c-308 -38 -581 -120 -850 -256 -261 -132 -453 -270 -661
-478 -395 -396 -638 -878 -726 -1441 -17 -110 -18 -403 -18 -6355 l0 -6240 27
-145 c102 -549 336 -999 717 -1381 213 -212 406 -351 672 -483 238 -119 501
-202 764 -242 116 -18 335 -19 6355 -19 l6235 0 129 23 c266 47 481 114 701
221 283 137 486 280 706 500 217 218 353 409 489 686 119 241 196 487 237 755
17 109 18 427 18 6340 0 5934 -1 6230 -18 6340 -42 270 -123 529 -238 760
-138 277 -274 466 -488 680 -397 396 -847 626 -1426 727 -95 17 -442 18 -6310
19 -4998 2 -6230 -1 -6315 -11z m12372 -1700 c342 -51 613 -300 701 -643 l22
-87 0 -6085 0 -6085 -22 -87 c-81 -318 -313 -550 -631 -631 l-87 -22 -6085 0
-6085 0 -86 22 c-316 81 -546 308 -632 626 l-22 82 -3 6035 c-2 4474 0 6059 8
6129 12 98 45 212 81 284 128 252 374 427 654 466 33 5 2767 9 6075 10 5230 1
6028 -1 6112 -14z"/>
<path d="M10131 14499 c-286 -37 -544 -228 -666 -493 -75 -161 -69 -37 -75
-1551 l-5 -1360 -1360 -5 c-1514 -6 -1390 0 -1551 -75 -106 -49 -181 -103
-270 -198 -64 -67 -92 -107 -133 -188 -72 -145 -93 -233 -93 -389 0 -156 21
-244 93 -389 105 -208 297 -366 534 -437 56 -17 145 -19 1420 -24 l1360 -5 5
-1360 c5 -1275 7 -1364 24 -1420 144 -479 634 -741 1096 -585 121 41 212 94
302 179 94 88 156 171 202 273 76 164 70 37 76 1553 l5 1360 1360 5 c1514 6
1390 0 1551 75 106 49 181 103 270 198 64 67 92 107 133 188 72 145 93 233 93
389 0 156 -21 244 -93 389 -105 208 -297 366 -534 437 -56 17 -145 19 -1420
24 l-1360 5 -5 1360 c-5 1275 -7 1364 -24 1420 -71 237 -231 432 -441 538 -90
45 -184 74 -287 87 -92 11 -115 11 -207 -1z"/>
</g>
</svg>
